Coordinates
version=1
nRows=14
nColumns=42
inDegrees=yes

Units are S.I. units (second, meters, Newtons, ...)
If the header above contains a line with 'inDegrees', this indicates whether rotational values are in degrees (yes) or radians (no).

endheader
time	pelvis_tilt	pelvis_list	pelvis_rotation	pelvis_tx	pelvis_ty	pelvis_tz	hip_flexion_r	hip_adduction_r	hip_rotation_r	knee_angle_r	knee_angle_r_beta	ankle_angle_r	subtalar_angle_r	mtp_angle_r	hip_flexion_l	hip_adduction_l	hip_rotation_l	knee_angle_l	knee_angle_l_beta	ankle_angle_l	subtalar_angle_l	mtp_angle_l	lumbar_extension	lumbar_bending	lumbar_rotation	sh_tx_r	sh_ty_r	sh_tz_r	sh_plane_elev_r	sh_elev_r	sh_axial_rot_r	elbow_flex_r	pro_sup_r	sh_tx_l	sh_ty_l	sh_tz_l	sh_plane_elev_l	sh_elev_l	sh_axial_rot_l	elbow_flex_l	pro_sup_l
      6.44067800	     -6.40612826	     -0.52179288	      0.99044967	      0.33428682	      0.96238629	     -0.02850560	      0.55575812	     -4.18480048	     -7.87581061	      0.73542085	      0.01283552	      2.44527964	     -1.07964262	     -7.49999987	      1.65904207	     -2.66926353	     -6.96588539	      1.79156387	      0.03126869	      9.12968197	      0.19002398	     -7.49999987	      3.02313839	      5.18607264	     -0.08462159	     -0.01232059	     -0.01566284	     -0.00477575	      2.16516905	      7.92345077	      4.61241955	     25.77730503	    105.61468022	     -0.00984926	     -0.00517473	     -0.00437805	     55.45647077	    155.36413261	    -22.95563567	     14.22996567	     20.44337842
      6.45762710	     -6.47776693	     -0.53537596	      1.00655145	      0.33466030	      0.96195475	     -0.02878280	      0.61718021	     -4.17309848	     -7.88042918	      0.72951958	      0.01273252	      2.56022148	     -0.85463566	     -7.49999987	      1.74212171	     -2.67727536	     -6.93932102	      1.79401045	      0.03131139	      9.10801683	      0.21367483	     -7.49999987	      3.34692085	      5.37145307	     -0.79239265	     -0.00945803	     -0.01563380	     -0.00493848	      2.16710550	      7.83402932	      5.68736495	     25.43281914	    101.16955085	     -0.01041159	     -0.00640943	     -0.00445947	     53.28835595	    155.16495313	    -25.15661775	     15.29092321	     23.29889042
      6.47457630	     -6.40676573	     -0.52092603	      1.07170398	      0.33429555	      0.96197415	     -0.02883232	      0.53180305	     -4.18397983	     -7.88977141	      0.71488599	      0.01247711	      2.61699510	     -0.80406152	     -7.49999987	      1.71049013	     -2.65182788	     -6.75565020	      1.82679170	      0.03188353	      9.01214759	     -0.04462647	     -7.49999987	      3.09325924	      5.14640230	      0.29751412	     -0.01425523	     -0.01607372	     -0.00473733	      2.38392831	      7.85387679	      4.04495125	     25.27332056	    102.74007395	     -0.00910866	     -0.00600650	     -0.00435007	     55.57902984	    155.36441740	    -25.39319743	     14.77317250	     24.16643589
      6.49152540	     -6.36705045	     -0.52511126	      1.10757485	      0.33452983	      0.96189120	     -0.02881004	      0.47789112	     -4.16864531	     -7.82869349	      0.70360944	      0.01228030	      2.64468783	     -0.85029811	     -7.49999987	      1.68943697	     -2.65815865	     -6.81132124	      1.85610134	      0.03239508	      9.11415098	      0.17431974	     -7.49999987	      3.07698364	      5.21800162	      0.13201858	     -0.01298184	     -0.01617056	     -0.00475413	      1.49138128	      7.85193531	      4.10519672	     25.59178298	    105.33487261	     -0.00873899	     -0.00652915	     -0.00429802	     55.20916659	    155.45147655	    -24.12853110	     14.50267306	     22.42857001
      6.50847460	     -6.39112500	     -0.52363312	      1.13724430	      0.33432190	      0.96191495	     -0.02883824	      0.54110758	     -4.12237513	     -7.85770712	      0.68120015	      0.01188919	      2.64512493	     -0.74272267	     -7.49999987	      1.72985514	     -2.65771568	     -6.79080712	      1.85586839	      0.03239101	      9.12000676	      0.20392405	     -7.49999987	      3.11010394	      5.29329042	     -0.31145707	     -0.01123310	     -0.01618581	     -0.00480825	      1.22790770	      7.84991088	      4.47463462	     25.78004369	    105.88509474	     -0.00972727	     -0.00658643	     -0.00426935	     54.52698706	    155.49742881	    -23.49848210	     14.21596848	     21.88475158
      6.52542370	     -6.37657737	     -0.52077011	      1.20321686	      0.33459023	      0.96190789	     -0.02878579	      0.57706276	     -4.05537899	     -7.84674141	      0.68602226	      0.01197335	      2.62793660	     -0.75694828	     -7.49999987	      1.73366755	     -2.65713654	     -6.72515601	      1.88373303	      0.03287734	      9.12575215	      0.26136143	     -7.49999987	      3.13392430	      5.26653296	     -0.05864724	     -0.01233052	     -0.01627317	     -0.00475576	      1.19414815	      7.79673383	      4.32808013	     25.56122314	    104.50563263	     -0.00897849	     -0.00662125	     -0.00428261	     54.75353350	    155.38799631	    -25.10481427	     14.62484341	     22.64656697
      6.54237290	     -6.38722723	     -0.49690309	      1.25919335	      0.33435685	      0.96201818	     -0.02891018	      0.63373146	     -4.02425877	     -7.83571770	      0.67549691	      0.01178965	      2.50113778	     -0.83381318	     -7.49999987	      1.76681677	     -2.63340723	     -6.66722852	      1.89786461	      0.03312399	      9.03457394	      0.18509987	     -7.49999987	      3.13350881	      5.21683464	      0.05511962	     -0.01345216	     -0.01622543	     -0.00476145	      1.08977468	      7.77418500	      4.18095477	     25.75612411	    104.51667761	     -0.00914039	     -0.00680009	     -0.00430168	     54.87152630	    155.25659717	    -25.21109188	     14.61817498	     22.93777324
      6.55932200	     -6.40119346	     -0.49768830	      1.33304914	      0.33461281	      0.96192568	     -0.02881759	      0.67085445	     -3.97109705	     -8.00979959	      0.66317792	      0.01157464	      2.56989952	     -0.64547735	     -7.49999987	      1.80405201	     -2.63771152	     -6.56122837	      1.90554371	      0.03325801	      8.99781025	      0.15313991	     -7.49999987	      3.20735432	      5.18723948	     -0.04318126	     -0.01333383	     -0.01617041	     -0.00477192	      1.03603474	      7.72923016	      4.25997658	     25.78600895	    103.88935914	     -0.00925136	     -0.00694421	     -0.00431761	     54.91479089	    155.16200584	    -25.88488392	     14.83949444	     24.01254002
      6.57627120	     -6.54032684	     -0.49949643	      1.23490196	      0.33385728	      0.96160114	     -0.02887569	      1.13639770	     -3.99330149	     -7.93915562	      1.16765598	      0.02037944	      2.73732537	     -0.73285451	     -7.49999987	      2.19339026	     -2.65279255	     -6.71581228	      2.36753224	      0.04132123	      9.28916974	      0.29720372	     -7.49999987	      3.58237886	      5.49123901	     -0.62048284	     -0.00943934	     -0.01333963	     -0.00506798	      1.08418743	      7.97208817	      5.72256953	     25.95327758	     99.44470830	     -0.01013689	     -0.00493890	     -0.00475673	     52.62546757	    154.44023105	    -27.94501206	     16.51940686	     26.71940656
      6.59322030	     -6.40279117	     -0.44595994	      1.27599625	      0.33477546	      0.96191954	     -0.02866701	      0.70927362	     -4.02478927	     -7.91069113	      0.68544053	      0.01196319	      2.42567458	     -0.67708638	     -7.49999987	      1.80781821	     -2.56793608	     -6.66741421	      1.92723523	      0.03363660	      8.94929489	      0.24579169	     -7.49999987	      3.27528767	      5.26391902	     -0.20463565	     -0.01139807	     -0.01613804	     -0.00484944	     -0.42177658	      7.80362026	      4.49268553	     26.48949309	    105.74612195	     -0.00957385	     -0.00675755	     -0.00431023	     54.71306780	    154.92529369	    -25.12817516	     14.77737077	     23.66300403
      6.61016950	     -6.40588556	     -0.40349555	      1.24529498	      0.33450678	      0.96183569	     -0.02866925	      0.69369904	     -4.12277258	     -7.86546560	      0.68917269	      0.01202833	      2.47110168	     -0.61960621	     -7.49999987	      1.79673413	     -2.51786063	     -6.71691435	      1.92361129	      0.03357335	      8.99293157	      0.28476026	     -7.49999987	      3.28588001	      5.21395091	      0.04331707	     -0.01191126	     -0.01599920	     -0.00486407	     -0.95773243	      7.83457246	      4.52079279	     26.74351798	    105.60941644	     -0.00943877	     -0.00649728	     -0.00435793	     55.04757828	    154.76926563	    -25.83849414	     15.34861593	     23.93039733
      6.62711860	     -6.41292068	     -0.37628212	      1.25161292	      0.33486324	      0.96182434	     -0.02851110	      0.68305192	     -4.20189039	     -7.80497527	      0.70266656	      0.01226384	      2.49935729	     -0.61592789	     -7.49999987	      1.80316883	     -2.48598928	     -6.67538388	      1.94493568	      0.03394553	      8.93850229	      0.14375170	     -7.49999987	      3.34967861	      5.18080121	      0.12565537	     -0.01186768	     -0.01600609	     -0.00486497	     -1.60636160	      7.80369092	      4.72482332	     26.89237305	    105.69374154	     -0.00905925	     -0.00681063	     -0.00438575	     55.02662374	    154.69223747	    -26.53787165	     15.58463363	     23.11914947
      6.64406780	     -6.56657506	     -0.37321608	      1.20883465	      0.33405482	      0.96139956	     -0.02865577	      1.11493524	     -4.27540888	     -7.77050729	      1.17463668	      0.02050128	      2.78484594	     -0.63379998	     -7.49999987	      2.19656070	     -2.50542214	     -6.76602628	      2.39918003	      0.04187359	      9.20764574	      0.19805324	     -7.49999987	      3.69566037	      5.38635047	     -0.34361112	     -0.00907855	     -0.01335317	     -0.00504069	     -1.41388459	      7.94796003	      5.94756119	     26.93699413	    101.07623757	     -0.01027456	     -0.00470777	     -0.00477150	     53.11157740	    154.06327403	    -28.57344401	     17.19477052	     25.58324943
      6.66101690	     -6.39052502	     -0.34250911	      1.24613964	      0.33492436	      0.96172035	     -0.02850983	      0.63142093	     -4.29131856	     -7.75699249	      0.68414472	      0.01194058	      2.66893974	     -0.46271707	     -7.49999987	      1.76941766	     -2.45190559	     -6.68467518	      1.96879153	      0.03436189	      8.95854344	      0.10159814	     -7.49999987	      3.33268564	      5.12533730	      0.02737342	     -0.01175857	     -0.01598021	     -0.00486337	     -1.58470482	      7.80302767	      4.46658192	     27.07849528	    105.34947441	     -0.00942900	     -0.00662204	     -0.00436296	     54.86560960	    154.76220294	    -26.14026988	     15.07497049	     24.78207921
